<mxfile host="app.diagrams.net" modified="2023-05-14T14:25:37.926Z" agent="Mozilla/5.0 (X11; Linux x86_64; rv:109.0) Gecko/20100101 Firefox/112.0" etag="UQDsEINfWUxfdZGvvRe0" version="21.2.3" type="device">
  <diagram name="Page-1" id="_KUc1AmlAjZ-KoBrIZQz">
    <mxGraphModel dx="989" dy="523" grid="1" gridSize="10" guides="1" tooltips="1" connect="1" arrows="1" fold="1" page="1" pageScale="1" pageWidth="827" pageHeight="1169" background="none" math="0" shadow="0">
      <root>
        <mxCell id="0" />
        <mxCell id="1" parent="0" />
        <mxCell id="zJrcc6M9fkiI_NqjpU4Z-103" value="&lt;div style=&quot;font-size: 13px;&quot;&gt;&lt;font style=&quot;font-size: 20px;&quot;&gt;Guns&lt;/font&gt;&lt;/div&gt;" style="rounded=0;whiteSpace=wrap;html=1;shadow=0;sketch=0;fillColor=#dae8fc;strokeColor=#6c8ebf;" parent="1" vertex="1">
          <mxGeometry x="443" y="195.5" width="120" height="60" as="geometry" />
        </mxCell>
        <mxCell id="zJrcc6M9fkiI_NqjpU4Z-104" value="&lt;font style=&quot;font-size: 20px;&quot;&gt;Reports&lt;/font&gt;" style="rounded=0;whiteSpace=wrap;html=1;shadow=0;sketch=0;fillColor=#dae8fc;strokeColor=#6c8ebf;" parent="1" vertex="1">
          <mxGeometry x="140" y="70" width="120" height="60" as="geometry" />
        </mxCell>
        <mxCell id="zJrcc6M9fkiI_NqjpU4Z-108" value="&lt;u&gt;&lt;b&gt;name&lt;/b&gt;&lt;/u&gt;" style="ellipse;whiteSpace=wrap;html=1;rounded=0;shadow=0;sketch=0;fontSize=20;fillColor=#fff2cc;strokeColor=#d6b656;" parent="1" vertex="1">
          <mxGeometry x="340" y="172" width="83" height="40" as="geometry" />
        </mxCell>
        <mxCell id="zJrcc6M9fkiI_NqjpU4Z-109" value="&lt;div&gt;type&lt;/div&gt;" style="ellipse;whiteSpace=wrap;html=1;rounded=0;shadow=0;sketch=0;fontSize=20;fillColor=#fff2cc;strokeColor=#d6b656;" parent="1" vertex="1">
          <mxGeometry x="340" y="215.5" width="80" height="40" as="geometry" />
        </mxCell>
        <mxCell id="zJrcc6M9fkiI_NqjpU4Z-111" value="altitude" style="ellipse;whiteSpace=wrap;html=1;rounded=0;shadow=0;sketch=0;fontSize=20;fillColor=#fff2cc;strokeColor=#d6b656;" parent="1" vertex="1">
          <mxGeometry x="109.5" y="147" width="100.5" height="43" as="geometry" />
        </mxCell>
        <mxCell id="zJrcc6M9fkiI_NqjpU4Z-112" value="timestamp" style="ellipse;whiteSpace=wrap;html=1;rounded=0;shadow=0;sketch=0;fontSize=20;fillColor=#fff2cc;strokeColor=#d6b656;" parent="1" vertex="1">
          <mxGeometry y="87" width="120" height="49" as="geometry" />
        </mxCell>
        <mxCell id="zJrcc6M9fkiI_NqjpU4Z-113" value="gun" style="ellipse;whiteSpace=wrap;html=1;rounded=0;shadow=0;sketch=0;fontSize=20;fillColor=#fff2cc;strokeColor=#d6b656;" parent="1" vertex="1">
          <mxGeometry x="125" y="12" width="74" height="41" as="geometry" />
        </mxCell>
        <mxCell id="zJrcc6M9fkiI_NqjpU4Z-114" value="&lt;b&gt;&lt;u&gt;report_id&lt;/u&gt;&lt;/b&gt;" style="ellipse;whiteSpace=wrap;html=1;rounded=0;shadow=0;sketch=0;fontSize=20;fillColor=#fff2cc;strokeColor=#d6b656;" parent="1" vertex="1">
          <mxGeometry x="23" y="31" width="102" height="49" as="geometry" />
        </mxCell>
        <mxCell id="zJrcc6M9fkiI_NqjpU4Z-115" value="coord" style="ellipse;whiteSpace=wrap;html=1;rounded=0;shadow=0;sketch=0;fontSize=20;fillColor=#fff2cc;strokeColor=#d6b656;" parent="1" vertex="1">
          <mxGeometry x="240" y="147" width="80" height="43" as="geometry" />
        </mxCell>
        <mxCell id="zJrcc6M9fkiI_NqjpU4Z-116" value="client_id" style="ellipse;whiteSpace=wrap;html=1;rounded=0;shadow=0;sketch=0;fontSize=20;fillColor=#fff2cc;strokeColor=#d6b656;" parent="1" vertex="1">
          <mxGeometry x="209" y="5" width="87" height="45" as="geometry" />
        </mxCell>
        <mxCell id="zJrcc6M9fkiI_NqjpU4Z-136" value="" style="endArrow=none;html=1;rounded=0;fontSize=20;entryX=0;entryY=0.25;entryDx=0;entryDy=0;exitX=1;exitY=0.5;exitDx=0;exitDy=0;" parent="1" source="zJrcc6M9fkiI_NqjpU4Z-108" target="zJrcc6M9fkiI_NqjpU4Z-103" edge="1">
          <mxGeometry width="50" height="50" relative="1" as="geometry">
            <mxPoint x="949" y="317.75" as="sourcePoint" />
            <mxPoint x="999" y="267.75" as="targetPoint" />
          </mxGeometry>
        </mxCell>
        <mxCell id="zJrcc6M9fkiI_NqjpU4Z-137" value="" style="endArrow=none;html=1;rounded=0;fontSize=20;entryX=0;entryY=0.5;entryDx=0;entryDy=0;exitX=1;exitY=0;exitDx=0;exitDy=0;" parent="1" source="zJrcc6M9fkiI_NqjpU4Z-109" target="zJrcc6M9fkiI_NqjpU4Z-103" edge="1">
          <mxGeometry width="50" height="50" relative="1" as="geometry">
            <mxPoint x="489" y="287.75" as="sourcePoint" />
            <mxPoint x="399" y="297.75" as="targetPoint" />
          </mxGeometry>
        </mxCell>
        <mxCell id="zJrcc6M9fkiI_NqjpU4Z-138" value="" style="endArrow=none;html=1;rounded=0;fontSize=20;entryX=0.75;entryY=1;entryDx=0;entryDy=0;exitX=0;exitY=0;exitDx=0;exitDy=0;" parent="1" source="zJrcc6M9fkiI_NqjpU4Z-115" target="zJrcc6M9fkiI_NqjpU4Z-104" edge="1">
          <mxGeometry width="50" height="50" relative="1" as="geometry">
            <mxPoint x="250" y="95" as="sourcePoint" />
            <mxPoint x="300" y="45" as="targetPoint" />
          </mxGeometry>
        </mxCell>
        <mxCell id="zJrcc6M9fkiI_NqjpU4Z-139" value="" style="endArrow=none;html=1;rounded=0;fontSize=20;entryX=0.5;entryY=1;entryDx=0;entryDy=0;exitX=0.5;exitY=0;exitDx=0;exitDy=0;" parent="1" source="zJrcc6M9fkiI_NqjpU4Z-111" target="zJrcc6M9fkiI_NqjpU4Z-104" edge="1">
          <mxGeometry width="50" height="50" relative="1" as="geometry">
            <mxPoint x="280" y="130" as="sourcePoint" />
            <mxPoint x="330" y="80" as="targetPoint" />
          </mxGeometry>
        </mxCell>
        <mxCell id="zJrcc6M9fkiI_NqjpU4Z-141" value="" style="endArrow=none;html=1;rounded=0;fontSize=20;entryX=0;entryY=0.75;entryDx=0;entryDy=0;exitX=1;exitY=0.5;exitDx=0;exitDy=0;" parent="1" source="zJrcc6M9fkiI_NqjpU4Z-112" target="zJrcc6M9fkiI_NqjpU4Z-104" edge="1">
          <mxGeometry width="50" height="50" relative="1" as="geometry">
            <mxPoint x="210" y="120" as="sourcePoint" />
            <mxPoint x="260" y="70" as="targetPoint" />
          </mxGeometry>
        </mxCell>
        <mxCell id="zJrcc6M9fkiI_NqjpU4Z-142" value="" style="endArrow=none;html=1;rounded=0;fontSize=20;entryX=0;entryY=0.25;entryDx=0;entryDy=0;exitX=1;exitY=1;exitDx=0;exitDy=0;" parent="1" source="zJrcc6M9fkiI_NqjpU4Z-114" target="zJrcc6M9fkiI_NqjpU4Z-104" edge="1">
          <mxGeometry width="50" height="50" relative="1" as="geometry">
            <mxPoint x="210" y="120" as="sourcePoint" />
            <mxPoint x="260" y="70" as="targetPoint" />
          </mxGeometry>
        </mxCell>
        <mxCell id="zJrcc6M9fkiI_NqjpU4Z-143" value="" style="endArrow=none;html=1;rounded=0;fontSize=20;entryX=0.5;entryY=1;entryDx=0;entryDy=0;exitX=0.75;exitY=0;exitDx=0;exitDy=0;" parent="1" source="zJrcc6M9fkiI_NqjpU4Z-104" target="zJrcc6M9fkiI_NqjpU4Z-116" edge="1">
          <mxGeometry width="50" height="50" relative="1" as="geometry">
            <mxPoint x="250" y="310" as="sourcePoint" />
            <mxPoint x="250" y="130" as="targetPoint" />
          </mxGeometry>
        </mxCell>
        <mxCell id="zJrcc6M9fkiI_NqjpU4Z-144" value="" style="endArrow=none;html=1;rounded=0;fontSize=20;entryX=0.5;entryY=1;entryDx=0;entryDy=0;exitX=0.25;exitY=0;exitDx=0;exitDy=0;" parent="1" source="zJrcc6M9fkiI_NqjpU4Z-104" target="zJrcc6M9fkiI_NqjpU4Z-113" edge="1">
          <mxGeometry width="50" height="50" relative="1" as="geometry">
            <mxPoint x="200" y="180" as="sourcePoint" />
            <mxPoint x="250" y="130" as="targetPoint" />
          </mxGeometry>
        </mxCell>
        <mxCell id="qsM5Xeg3mWJmARpU3yar-3" value="1" style="rounded=0;orthogonalLoop=1;jettySize=auto;html=1;entryX=1;entryY=0.5;entryDx=0;entryDy=0;endArrow=none;endFill=0;exitX=0;exitY=0.5;exitDx=0;exitDy=0;fontSize=20;" parent="1" source="zJrcc6M9fkiI_NqjpU4Z-145" target="zJrcc6M9fkiI_NqjpU4Z-163" edge="1">
          <mxGeometry relative="1" as="geometry">
            <mxPoint x="470" y="65.5" as="targetPoint" />
          </mxGeometry>
        </mxCell>
        <mxCell id="zJrcc6M9fkiI_NqjpU4Z-145" value="&lt;font style=&quot;font-size: 20px;&quot;&gt;Gunshots&lt;/font&gt;" style="rounded=0;whiteSpace=wrap;html=1;shadow=0;sketch=0;fillColor=#dae8fc;strokeColor=#6c8ebf;" parent="1" vertex="1">
          <mxGeometry x="567" y="68.5" width="120" height="60" as="geometry" />
        </mxCell>
        <mxCell id="zJrcc6M9fkiI_NqjpU4Z-146" value="coord" style="ellipse;whiteSpace=wrap;html=1;rounded=0;shadow=0;sketch=0;fontSize=20;fillColor=#fff2cc;strokeColor=#d6b656;" parent="1" vertex="1">
          <mxGeometry x="720" y="102.75" width="80" height="37.25" as="geometry" />
        </mxCell>
        <mxCell id="zJrcc6M9fkiI_NqjpU4Z-148" value="timestamp" style="ellipse;whiteSpace=wrap;html=1;rounded=0;shadow=0;sketch=0;fontSize=20;fillColor=#fff2cc;strokeColor=#d6b656;" parent="1" vertex="1">
          <mxGeometry x="610" y="147" width="120" height="48" as="geometry" />
        </mxCell>
        <mxCell id="zJrcc6M9fkiI_NqjpU4Z-149" value="gun" style="ellipse;whiteSpace=wrap;html=1;rounded=0;shadow=0;sketch=0;fontSize=20;fillColor=#fff2cc;strokeColor=#d6b656;" parent="1" vertex="1">
          <mxGeometry x="562" y="8.5" width="80" height="42" as="geometry" />
        </mxCell>
        <mxCell id="zJrcc6M9fkiI_NqjpU4Z-150" value="&lt;b&gt;&lt;u&gt;gunshot_id&lt;/u&gt;&lt;/b&gt;" style="ellipse;whiteSpace=wrap;html=1;rounded=0;shadow=0;sketch=0;fontSize=20;fillColor=#fff2cc;strokeColor=#d6b656;" parent="1" vertex="1">
          <mxGeometry x="440" y="5" width="116" height="55" as="geometry" />
        </mxCell>
        <mxCell id="zJrcc6M9fkiI_NqjpU4Z-151" value="altitude" style="ellipse;whiteSpace=wrap;html=1;rounded=0;shadow=0;sketch=0;fontSize=20;fillColor=#fff2cc;strokeColor=#d6b656;" parent="1" vertex="1">
          <mxGeometry x="722" y="47.5" width="100" height="44.5" as="geometry" />
        </mxCell>
        <mxCell id="zJrcc6M9fkiI_NqjpU4Z-152" value="shots_fired" style="ellipse;whiteSpace=wrap;html=1;rounded=0;shadow=0;sketch=0;fontSize=20;fillColor=#fff2cc;strokeColor=#d6b656;" parent="1" vertex="1">
          <mxGeometry x="649" y="5" width="108" height="49" as="geometry" />
        </mxCell>
        <mxCell id="zJrcc6M9fkiI_NqjpU4Z-153" value="" style="endArrow=none;html=1;rounded=0;fontSize=20;entryX=1;entryY=0.25;entryDx=0;entryDy=0;exitX=0;exitY=0.5;exitDx=0;exitDy=0;" parent="1" source="zJrcc6M9fkiI_NqjpU4Z-151" target="zJrcc6M9fkiI_NqjpU4Z-145" edge="1">
          <mxGeometry width="50" height="50" relative="1" as="geometry">
            <mxPoint x="731" y="83" as="sourcePoint" />
            <mxPoint x="781" y="33" as="targetPoint" />
          </mxGeometry>
        </mxCell>
        <mxCell id="zJrcc6M9fkiI_NqjpU4Z-155" value="" style="endArrow=none;html=1;rounded=0;fontSize=20;entryX=1;entryY=0.75;entryDx=0;entryDy=0;exitX=0;exitY=0.5;exitDx=0;exitDy=0;" parent="1" source="zJrcc6M9fkiI_NqjpU4Z-146" target="zJrcc6M9fkiI_NqjpU4Z-145" edge="1">
          <mxGeometry width="50" height="50" relative="1" as="geometry">
            <mxPoint x="691" y="108" as="sourcePoint" />
            <mxPoint x="731" y="128" as="targetPoint" />
          </mxGeometry>
        </mxCell>
        <mxCell id="zJrcc6M9fkiI_NqjpU4Z-156" value="" style="endArrow=none;html=1;rounded=0;fontSize=20;entryX=0.75;entryY=1;entryDx=0;entryDy=0;exitX=0.5;exitY=0;exitDx=0;exitDy=0;" parent="1" source="zJrcc6M9fkiI_NqjpU4Z-148" target="zJrcc6M9fkiI_NqjpU4Z-145" edge="1">
          <mxGeometry width="50" height="50" relative="1" as="geometry">
            <mxPoint x="691" y="108" as="sourcePoint" />
            <mxPoint x="741" y="58" as="targetPoint" />
          </mxGeometry>
        </mxCell>
        <mxCell id="zJrcc6M9fkiI_NqjpU4Z-157" value="" style="endArrow=none;html=1;rounded=0;fontSize=20;entryX=0;entryY=0;entryDx=0;entryDy=0;exitX=1;exitY=1;exitDx=0;exitDy=0;" parent="1" source="zJrcc6M9fkiI_NqjpU4Z-150" target="zJrcc6M9fkiI_NqjpU4Z-145" edge="1">
          <mxGeometry width="50" height="50" relative="1" as="geometry">
            <mxPoint x="691" y="108" as="sourcePoint" />
            <mxPoint x="741" y="58" as="targetPoint" />
          </mxGeometry>
        </mxCell>
        <mxCell id="zJrcc6M9fkiI_NqjpU4Z-158" value="" style="endArrow=none;html=1;rounded=0;fontSize=20;entryX=0;entryY=1;entryDx=0;entryDy=0;exitX=0.75;exitY=0;exitDx=0;exitDy=0;" parent="1" source="zJrcc6M9fkiI_NqjpU4Z-145" target="zJrcc6M9fkiI_NqjpU4Z-152" edge="1">
          <mxGeometry width="50" height="50" relative="1" as="geometry">
            <mxPoint x="731" y="298" as="sourcePoint" />
            <mxPoint x="731" y="118" as="targetPoint" />
          </mxGeometry>
        </mxCell>
        <mxCell id="zJrcc6M9fkiI_NqjpU4Z-159" value="" style="endArrow=none;html=1;rounded=0;fontSize=20;entryX=0.5;entryY=1;entryDx=0;entryDy=0;exitX=0.25;exitY=0;exitDx=0;exitDy=0;" parent="1" source="zJrcc6M9fkiI_NqjpU4Z-145" target="zJrcc6M9fkiI_NqjpU4Z-149" edge="1">
          <mxGeometry width="50" height="50" relative="1" as="geometry">
            <mxPoint x="681" y="168" as="sourcePoint" />
            <mxPoint x="731" y="118" as="targetPoint" />
          </mxGeometry>
        </mxCell>
        <mxCell id="zJrcc6M9fkiI_NqjpU4Z-163" value="has" style="rhombus;whiteSpace=wrap;html=1;rounded=0;shadow=0;sketch=0;fontSize=20;fillColor=#d5e8d4;strokeColor=#82b366;" parent="1" vertex="1">
          <mxGeometry x="400" y="87" width="80" height="80" as="geometry" />
        </mxCell>
        <mxCell id="zJrcc6M9fkiI_NqjpU4Z-166" value="1" style="endArrow=none;html=1;rounded=0;fontSize=20;entryX=1;entryY=0.5;entryDx=0;entryDy=0;exitX=0;exitY=0.5;exitDx=0;exitDy=0;" parent="1" source="zJrcc6M9fkiI_NqjpU4Z-163" target="zJrcc6M9fkiI_NqjpU4Z-104" edge="1">
          <mxGeometry width="50" height="50" relative="1" as="geometry">
            <mxPoint x="-139" y="146" as="sourcePoint" />
            <mxPoint x="-89" y="96" as="targetPoint" />
          </mxGeometry>
        </mxCell>
        <mxCell id="zJrcc6M9fkiI_NqjpU4Z-167" value="1" style="endArrow=open;html=1;rounded=0;fontSize=20;entryX=0.5;entryY=0;entryDx=0;entryDy=0;exitX=1;exitY=1;exitDx=0;exitDy=0;endFill=0;endSize=16;" parent="1" source="zJrcc6M9fkiI_NqjpU4Z-163" target="zJrcc6M9fkiI_NqjpU4Z-103" edge="1">
          <mxGeometry width="50" height="50" relative="1" as="geometry">
            <mxPoint x="466" y="147" as="sourcePoint" />
            <mxPoint x="219" y="436.75" as="targetPoint" />
          </mxGeometry>
        </mxCell>
        <mxCell id="qsM5Xeg3mWJmARpU3yar-9" value="&lt;font style=&quot;font-size: 20px;&quot;&gt;M&lt;/font&gt;" style="rounded=0;orthogonalLoop=1;jettySize=auto;html=1;entryX=1;entryY=0.25;entryDx=0;entryDy=0;endArrow=none;endFill=0;endSize=16;exitX=0;exitY=0.5;exitDx=0;exitDy=0;" parent="1" source="qsM5Xeg3mWJmARpU3yar-6" target="zJrcc6M9fkiI_NqjpU4Z-104" edge="1">
          <mxGeometry relative="1" as="geometry" />
        </mxCell>
        <mxCell id="qsM5Xeg3mWJmARpU3yar-10" style="rounded=0;orthogonalLoop=1;jettySize=auto;html=1;entryX=0;entryY=0.25;entryDx=0;entryDy=0;endArrow=open;endFill=0;endSize=16;exitX=1;exitY=0.5;exitDx=0;exitDy=0;" parent="1" source="qsM5Xeg3mWJmARpU3yar-6" target="zJrcc6M9fkiI_NqjpU4Z-145" edge="1">
          <mxGeometry relative="1" as="geometry" />
        </mxCell>
        <mxCell id="qsM5Xeg3mWJmARpU3yar-11" value="&lt;font style=&quot;font-size: 20px;&quot;&gt;1&lt;/font&gt;" style="edgeLabel;html=1;align=center;verticalAlign=middle;resizable=0;points=[];" parent="qsM5Xeg3mWJmARpU3yar-10" vertex="1" connectable="0">
          <mxGeometry x="-0.2025" y="3" relative="1" as="geometry">
            <mxPoint as="offset" />
          </mxGeometry>
        </mxCell>
        <mxCell id="qsM5Xeg3mWJmARpU3yar-6" value="creates" style="rhombus;whiteSpace=wrap;html=1;rounded=0;shadow=0;sketch=0;fontSize=20;fillColor=#d5e8d4;strokeColor=#82b366;" parent="1" vertex="1">
          <mxGeometry x="322" y="31" width="80" height="80" as="geometry" />
        </mxCell>
      </root>
    </mxGraphModel>
  </diagram>
</mxfile>
